<svg xmlns="http://www.w3.org/2000/svg" xmlns:xlink="http://www.w3.org/1999/xlink" width="200" zoomAndPan="magnify" viewBox="0 0 150 74.999997" height="100" preserveAspectRatio="xMidYMid meet" version="1.0"><defs><g/></defs><g fill="#000000" fill-opacity="1"><g transform="translate(0.000003, 44.752058)"><g><path d="M 7.46875 -13.921875 C 8.238281 -13.921875 9 -13.832031 9.75 -13.65625 C 10.507812 -13.488281 11.078125 -13.316406 11.453125 -13.140625 L 12 -12.875 L 10.46875 -9.8125 C 9.414062 -10.375 8.414062 -10.65625 7.46875 -10.65625 C 6.9375 -10.65625 6.5625 -10.597656 6.34375 -10.484375 C 6.125 -10.367188 6.015625 -10.15625 6.015625 -9.84375 C 6.015625 -9.769531 6.019531 -9.695312 6.03125 -9.625 C 6.050781 -9.550781 6.085938 -9.484375 6.140625 -9.421875 C 6.191406 -9.367188 6.238281 -9.316406 6.28125 -9.265625 C 6.332031 -9.222656 6.410156 -9.175781 6.515625 -9.125 C 6.617188 -9.070312 6.703125 -9.03125 6.765625 -9 C 6.828125 -8.976562 6.925781 -8.941406 7.0625 -8.890625 C 7.207031 -8.835938 7.3125 -8.796875 7.375 -8.765625 C 7.445312 -8.742188 7.566406 -8.707031 7.734375 -8.65625 C 7.898438 -8.601562 8.03125 -8.566406 8.125 -8.546875 C 8.664062 -8.390625 9.140625 -8.210938 9.546875 -8.015625 C 9.953125 -7.828125 10.378906 -7.5625 10.828125 -7.21875 C 11.273438 -6.882812 11.617188 -6.460938 11.859375 -5.953125 C 12.109375 -5.453125 12.234375 -4.875 12.234375 -4.21875 C 12.234375 -1.144531 10.097656 0.390625 5.828125 0.390625 C 4.859375 0.390625 3.9375 0.242188 3.0625 -0.046875 C 2.195312 -0.347656 1.570312 -0.648438 1.1875 -0.953125 L 0.609375 -1.421875 L 2.5 -4.609375 C 2.644531 -4.492188 2.832031 -4.351562 3.0625 -4.1875 C 3.289062 -4.019531 3.703125 -3.789062 4.296875 -3.5 C 4.898438 -3.207031 5.421875 -3.0625 5.859375 -3.0625 C 6.828125 -3.0625 7.3125 -3.382812 7.3125 -4.03125 C 7.3125 -4.332031 7.1875 -4.566406 6.9375 -4.734375 C 6.6875 -4.898438 6.265625 -5.085938 5.671875 -5.296875 C 5.085938 -5.515625 4.628906 -5.707031 4.296875 -5.875 C 3.453125 -6.320312 2.785156 -6.820312 2.296875 -7.375 C 1.804688 -7.925781 1.5625 -8.660156 1.5625 -9.578125 C 1.5625 -10.941406 2.09375 -12.003906 3.15625 -12.765625 C 4.21875 -13.535156 5.65625 -13.921875 7.46875 -13.921875 Z M 7.46875 -13.921875 "/></g></g></g><g fill="#000000" fill-opacity="1"><g transform="translate(11.656057, 44.752058)"><g><path d="M 2.03125 -21.0625 C 2.570312 -21.613281 3.21875 -21.890625 3.96875 -21.890625 C 4.726562 -21.890625 5.378906 -21.613281 5.921875 -21.0625 C 6.472656 -20.519531 6.75 -19.867188 6.75 -19.109375 C 6.75 -18.359375 6.472656 -17.710938 5.921875 -17.171875 C 5.378906 -16.628906 4.726562 -16.359375 3.96875 -16.359375 C 3.21875 -16.359375 2.570312 -16.628906 2.03125 -17.171875 C 1.488281 -17.710938 1.21875 -18.359375 1.21875 -19.109375 C 1.21875 -19.867188 1.488281 -20.519531 2.03125 -21.0625 Z M 1.578125 -13.53125 L 1.578125 0 L 6.25 0 L 6.25 -13.53125 Z M 1.578125 -13.53125 "/></g></g></g><g fill="#000000" fill-opacity="1"><g transform="translate(18.301589, 44.752058)"><g><path d="M 2.5 -1.671875 C 1.238281 -3.054688 0.609375 -4.75 0.609375 -6.75 C 0.609375 -8.757812 1.238281 -10.457031 2.5 -11.84375 C 3.769531 -13.226562 5.378906 -13.921875 7.328125 -13.921875 C 9.117188 -13.921875 10.597656 -13.359375 11.765625 -12.234375 L 11.765625 -22.6875 L 16.4375 -22.6875 L 16.4375 0 L 11.8125 0 L 11.8125 -1.53125 L 11.765625 -1.53125 C 10.597656 -0.25 9.117188 0.390625 7.328125 0.390625 C 5.378906 0.390625 3.769531 -0.296875 2.5 -1.671875 Z M 6.46875 -9.046875 C 5.863281 -8.453125 5.5625 -7.6875 5.5625 -6.75 C 5.5625 -5.820312 5.851562 -5.0625 6.4375 -4.46875 C 7.019531 -3.882812 7.785156 -3.59375 8.734375 -3.59375 C 9.648438 -3.59375 10.398438 -3.890625 10.984375 -4.484375 C 11.578125 -5.078125 11.875 -5.832031 11.875 -6.75 C 11.875 -7.6875 11.566406 -8.453125 10.953125 -9.046875 C 10.347656 -9.640625 9.609375 -9.9375 8.734375 -9.9375 C 7.835938 -9.9375 7.082031 -9.640625 6.46875 -9.046875 Z M 6.46875 -9.046875 "/></g></g></g><g fill="#000000" fill-opacity="1"><g transform="translate(34.994535, 44.752058)"><g><path d="M 2.5 -1.671875 C 1.238281 -3.054688 0.609375 -4.75 0.609375 -6.75 C 0.609375 -8.757812 1.238281 -10.457031 2.5 -11.84375 C 3.769531 -13.226562 5.378906 -13.921875 7.328125 -13.921875 C 9.117188 -13.921875 10.597656 -13.359375 11.765625 -12.234375 L 11.765625 -22.6875 L 16.4375 -22.6875 L 16.4375 0 L 11.8125 0 L 11.8125 -1.53125 L 11.765625 -1.53125 C 10.597656 -0.25 9.117188 0.390625 7.328125 0.390625 C 5.378906 0.390625 3.769531 -0.296875 2.5 -1.671875 Z M 6.46875 -9.046875 C 5.863281 -8.453125 5.5625 -7.6875 5.5625 -6.75 C 5.5625 -5.820312 5.851562 -5.0625 6.4375 -4.46875 C 7.019531 -3.882812 7.785156 -3.59375 8.734375 -3.59375 C 9.648438 -3.59375 10.398438 -3.890625 10.984375 -4.484375 C 11.578125 -5.078125 11.875 -5.832031 11.875 -6.75 C 11.875 -7.6875 11.566406 -8.453125 10.953125 -9.046875 C 10.347656 -9.640625 9.609375 -9.9375 8.734375 -9.9375 C 7.835938 -9.9375 7.082031 -9.640625 6.46875 -9.046875 Z M 6.46875 -9.046875 "/></g></g></g><g fill="#000000" fill-opacity="1"><g transform="translate(51.687477, 44.752058)"><g><path d="M 1.578125 0 L 1.578125 -22.6875 L 6.25 -22.6875 L 6.25 -12.109375 L 6.296875 -12.109375 C 7.515625 -13.316406 8.8125 -13.921875 10.1875 -13.921875 C 10.851562 -13.921875 11.515625 -13.832031 12.171875 -13.65625 C 12.828125 -13.488281 13.457031 -13.21875 14.0625 -12.84375 C 14.675781 -12.476562 15.171875 -11.957031 15.546875 -11.28125 C 15.921875 -10.601562 16.109375 -9.816406 16.109375 -8.921875 L 16.109375 0 L 11.453125 0 L 11.453125 -7.65625 C 11.453125 -8.351562 11.226562 -8.960938 10.78125 -9.484375 C 10.332031 -10.015625 9.742188 -10.28125 9.015625 -10.28125 C 8.316406 -10.28125 7.679688 -10.007812 7.109375 -9.46875 C 6.535156 -8.925781 6.25 -8.320312 6.25 -7.65625 L 6.25 0 Z M 1.578125 0 "/></g></g></g><g fill="#000000" fill-opacity="1"><g transform="translate(67.800257, 44.752058)"><g><path d="M 2.5 -1.671875 C 1.238281 -3.054688 0.609375 -4.75 0.609375 -6.75 C 0.609375 -8.757812 1.238281 -10.457031 2.5 -11.84375 C 3.769531 -13.226562 5.378906 -13.921875 7.328125 -13.921875 C 9.117188 -13.921875 10.597656 -13.359375 11.765625 -12.234375 L 11.765625 -13.53125 L 16.4375 -13.53125 L 16.4375 0 L 11.8125 0 L 11.8125 -1.53125 L 11.765625 -1.53125 C 10.597656 -0.25 9.117188 0.390625 7.328125 0.390625 C 5.378906 0.390625 3.769531 -0.296875 2.5 -1.671875 Z M 6.46875 -9.046875 C 5.863281 -8.453125 5.5625 -7.6875 5.5625 -6.75 C 5.5625 -5.820312 5.851562 -5.0625 6.4375 -4.46875 C 7.019531 -3.882812 7.785156 -3.59375 8.734375 -3.59375 C 9.648438 -3.59375 10.398438 -3.890625 10.984375 -4.484375 C 11.578125 -5.078125 11.875 -5.832031 11.875 -6.75 C 11.875 -7.6875 11.566406 -8.453125 10.953125 -9.046875 C 10.347656 -9.640625 9.609375 -9.9375 8.734375 -9.9375 C 7.835938 -9.9375 7.082031 -9.640625 6.46875 -9.046875 Z M 6.46875 -9.046875 "/></g></g></g><g fill="#000000" fill-opacity="1"><g transform="translate(84.493205, 44.752058)"><g><path d="M 1.578125 0 L 1.578125 -13.53125 L 6.25 -13.53125 L 6.25 -11.578125 L 6.296875 -11.578125 C 6.335938 -11.648438 6.394531 -11.738281 6.46875 -11.84375 C 6.550781 -11.945312 6.722656 -12.128906 6.984375 -12.390625 C 7.253906 -12.660156 7.535156 -12.898438 7.828125 -13.109375 C 8.128906 -13.316406 8.515625 -13.503906 8.984375 -13.671875 C 9.460938 -13.835938 9.945312 -13.921875 10.4375 -13.921875 C 10.945312 -13.921875 11.445312 -13.847656 11.9375 -13.703125 C 12.4375 -13.566406 12.800781 -13.429688 13.03125 -13.296875 L 13.40625 -13.078125 L 11.453125 -9.125 C 10.867188 -9.613281 10.054688 -9.859375 9.015625 -9.859375 C 8.453125 -9.859375 7.96875 -9.734375 7.5625 -9.484375 C 7.164062 -9.242188 6.882812 -8.945312 6.71875 -8.59375 C 6.550781 -8.25 6.429688 -7.953125 6.359375 -7.703125 C 6.285156 -7.453125 6.25 -7.257812 6.25 -7.125 L 6.25 0 Z M 1.578125 0 "/></g></g></g><g fill="#000000" fill-opacity="1"><g transform="translate(96.307482, 44.752058)"><g><path d="M 2.375 -13.53125 L 2.375 -18.5625 L 7.046875 -18.5625 L 7.046875 -13.53125 L 9.890625 -13.53125 L 9.890625 -9.96875 L 7.046875 -9.96875 L 7.046875 -5.671875 C 7.046875 -4.421875 7.394531 -3.796875 8.09375 -3.796875 C 8.269531 -3.796875 8.453125 -3.832031 8.640625 -3.90625 C 8.835938 -3.976562 8.988281 -4.046875 9.09375 -4.109375 L 9.25 -4.21875 L 10.421875 -0.453125 C 9.421875 0.109375 8.273438 0.390625 6.984375 0.390625 C 6.109375 0.390625 5.351562 0.238281 4.71875 -0.0625 C 4.082031 -0.375 3.601562 -0.785156 3.28125 -1.296875 C 2.957031 -1.816406 2.722656 -2.363281 2.578125 -2.9375 C 2.441406 -3.507812 2.375 -4.125 2.375 -4.78125 L 2.375 -9.96875 L 0.421875 -9.96875 L 0.421875 -13.53125 Z M 2.375 -13.53125 "/></g></g></g><g fill="#000000" fill-opacity="1"><g transform="translate(105.405535, 44.752058)"><g><path d="M 1.578125 0 L 1.578125 -22.6875 L 6.25 -22.6875 L 6.25 -12.109375 L 6.296875 -12.109375 C 7.515625 -13.316406 8.8125 -13.921875 10.1875 -13.921875 C 10.851562 -13.921875 11.515625 -13.832031 12.171875 -13.65625 C 12.828125 -13.488281 13.457031 -13.21875 14.0625 -12.84375 C 14.675781 -12.476562 15.171875 -11.957031 15.546875 -11.28125 C 15.921875 -10.601562 16.109375 -9.816406 16.109375 -8.921875 L 16.109375 0 L 11.453125 0 L 11.453125 -7.65625 C 11.453125 -8.351562 11.226562 -8.960938 10.78125 -9.484375 C 10.332031 -10.015625 9.742188 -10.28125 9.015625 -10.28125 C 8.316406 -10.28125 7.679688 -10.007812 7.109375 -9.46875 C 6.535156 -8.925781 6.25 -8.320312 6.25 -7.65625 L 6.25 0 Z M 1.578125 0 "/></g></g></g><g fill="#000000" fill-opacity="1"><g transform="translate(121.518309, 44.752058)"><g><path d="M 7.46875 -13.921875 C 8.238281 -13.921875 9 -13.832031 9.75 -13.65625 C 10.507812 -13.488281 11.078125 -13.316406 11.453125 -13.140625 L 12 -12.875 L 10.46875 -9.8125 C 9.414062 -10.375 8.414062 -10.65625 7.46875 -10.65625 C 6.9375 -10.65625 6.5625 -10.597656 6.34375 -10.484375 C 6.125 -10.367188 6.015625 -10.15625 6.015625 -9.84375 C 6.015625 -9.769531 6.019531 -9.695312 6.03125 -9.625 C 6.050781 -9.550781 6.085938 -9.484375 6.140625 -9.421875 C 6.191406 -9.367188 6.238281 -9.316406 6.28125 -9.265625 C 6.332031 -9.222656 6.410156 -9.175781 6.515625 -9.125 C 6.617188 -9.070312 6.703125 -9.03125 6.765625 -9 C 6.828125 -8.976562 6.925781 -8.941406 7.0625 -8.890625 C 7.207031 -8.835938 7.3125 -8.796875 7.375 -8.765625 C 7.445312 -8.742188 7.566406 -8.707031 7.734375 -8.65625 C 7.898438 -8.601562 8.03125 -8.566406 8.125 -8.546875 C 8.664062 -8.390625 9.140625 -8.210938 9.546875 -8.015625 C 9.953125 -7.828125 10.378906 -7.5625 10.828125 -7.21875 C 11.273438 -6.882812 11.617188 -6.460938 11.859375 -5.953125 C 12.109375 -5.453125 12.234375 -4.875 12.234375 -4.21875 C 12.234375 -1.144531 10.097656 0.390625 5.828125 0.390625 C 4.859375 0.390625 3.9375 0.242188 3.0625 -0.046875 C 2.195312 -0.347656 1.570312 -0.648438 1.1875 -0.953125 L 0.609375 -1.421875 L 2.5 -4.609375 C 2.644531 -4.492188 2.832031 -4.351562 3.0625 -4.1875 C 3.289062 -4.019531 3.703125 -3.789062 4.296875 -3.5 C 4.898438 -3.207031 5.421875 -3.0625 5.859375 -3.0625 C 6.828125 -3.0625 7.3125 -3.382812 7.3125 -4.03125 C 7.3125 -4.332031 7.1875 -4.566406 6.9375 -4.734375 C 6.6875 -4.898438 6.265625 -5.085938 5.671875 -5.296875 C 5.085938 -5.515625 4.628906 -5.707031 4.296875 -5.875 C 3.453125 -6.320312 2.785156 -6.820312 2.296875 -7.375 C 1.804688 -7.925781 1.5625 -8.660156 1.5625 -9.578125 C 1.5625 -10.941406 2.09375 -12.003906 3.15625 -12.765625 C 4.21875 -13.535156 5.65625 -13.921875 7.46875 -13.921875 Z M 7.46875 -13.921875 "/></g></g></g><g fill="#000000" fill-opacity="1"><g transform="translate(133.174365, 44.752058)"><g><path d="M 18.8125 -21.765625 L 18.8125 -20.3125 L 7.3125 0 L 1.453125 0 L 11.46875 -17.40625 L 2.109375 -17.40625 L 2.109375 -21.765625 Z M 18.8125 -21.765625 "/></g></g></g></svg>